<?xml version="1.0" encoding="utf-8"?>
<!-- Generator: Adobe Illustrator 28.2.0, SVG Export Plug-In . SVG Version: 6.00 Build 0)  -->
<svg version="1.1" id="Layer_1" xmlns="http://www.w3.org/2000/svg" xmlns:xlink="http://www.w3.org/1999/xlink" x="0px" y="0px"
	 viewBox="0 0 218.6 413" style="enable-background:new 0 0 218.6 413;" xml:space="preserve">
<style type="text/css">
	.st0{fill:#8D4FD2;}
	.st1{fill:#FB9D22;}
</style>
<g>
	<g>
		<g>
			<path class="st0" d="M110.3,413c-1.05-1.79-2.47-4.09-3.4-5.56c-13.04-21.28-33.57-55.63-31.4-80.76
				c1.29-12.72,5.47-23.36,16.6-30.32c1.84,9.28,5.32,18.32,13.04,24.41c5.55,4,12.5,5.92,19.32,6.05c5.33,0.11,10.73-2.4,14.4-6.02
				c12.41-12.18,7.85-30.74-5.93-39.51c-9.48-6.2-21.68-6.26-32.18-2.8c-1.17-16.76-0.2-33.9,0.91-50.71
				c2.8-37.61,7.27-75.23,12.49-112.61l-8.41-1.25c-5.76,37.58-10.74,75.17-14.07,113.09c-1.47,18.61-2.76,37.11-1.36,55.88
				c-1.42,0.69-2.82,1.41-4.17,2.23c-5.79,3.41-11.14,8.2-15.01,13.86c-5.9,9-8.54,19.73-9.12,30.34
				c-0.5,27.68,16.99,59.01,31.62,83.68H110.3z M115.96,288.51c8.67-0.04,17.99,6.46,18.35,15.46c0.1,5.13-4.02,10.9-9.33,11.34
				c-4.5,0.11-9.26-1.04-13.06-3.53c-5.88-4.6-8.32-12.66-9.68-20.48C106.58,289.45,111.44,288.35,115.96,288.51z"/>
			<path class="st0" d="M98.15,246.59c-9.18,0.59-32.36,0.84-56.99-12.83C16.37,219.99,4.33,200,0,191.89
				c7.15-1.64,19.36-3.48,34.06-0.8c21.17,3.85,34.89,14.78,39.43,18.67C89.42,223.44,95.79,239.48,98.15,246.59z"/>
			<path class="st0" d="M93.81,247.69c3.89-7.74,14.72-26.71,37.55-40.22c22.98-13.6,44.97-13.88,53.62-13.54
				c-2.07,6.59-6.39,17.39-15.56,28.07c-13.21,15.38-28.62,21.34-33.95,23.17C116.78,251.61,100.71,249.16,93.81,247.69z"/>
		</g>
	</g>
	<g>
		<g>
			<path class="st1" d="M216.7,64.27c0,0-2.53-5.19-8.31-8.98c-9.95-6.52-33.41-1.67-59.4,12.84c4.11-15.9,2.41-28.52,0.94-35.35
				c-2.32-10.74-5.31-24.54-16.96-30.21c-7.03-3.42-17.2-3.88-24.11,1.34c-3.06,2.31-6.58,6.57-8.69,22.86
				c-1.28,9.89-2.08,24.41,0.89,42.29c-5.61-2.06-13.55-4.66-23.28-6.82c-4.85-1.08-12.85-2.85-21.45-3.4
				c-1.64-0.11-39.47-2.26-43.78,10.89c-2.57,7.84,7.89,17.71,11.24,20.87c16.46,15.54,39.01,14.98,46.55,14.45
				c-3.96,0.52-21.82,3.29-30.91,18.09c-2.02,3.29-7.59,12.35-3.94,20.73c3.47,7.96,13.04,10.25,16.41,11.06
				c2.11,0.5,9.49,2.04,21.04-1.91c17.74-6.07,28.64-19.38,33.68-26.62c1.1,6.97,4.94,13.17,8.7,19.14
				c2.28,3.62,5.75,9.35,11.2,14.39c10.83,10.02,30.73,18.72,40.55,11.15c4.51-3.48,5.41-9.24,6.01-13.05
				c3.32-21.31-13.69-39.18-17.63-43.13c35.11-7.51,59.69-21.58,62.46-34.24C220,71.05,216.7,64.27,216.7,64.27z M137.75,93.82
				c-1.05,7.93-8.49,16.09-17.66,16.05c-7.03-0.03-11.56-4.85-12.14-5.48c-5.99-6.58-4.08-15.22-3.71-16.49
				c1.51-5.23,5.88-9.06,10.03-12.59l9.15,0.94c1,0.14,9.06,1.39,12.77,8.43C138.36,88.78,137.9,92.68,137.75,93.82z"/>
		</g>
	</g>
</g>
</svg>
