<?xml version="1.0" encoding="utf-8"?>
<!-- Generator: Adobe Illustrator 28.2.0, SVG Export Plug-In . SVG Version: 6.00 Build 0)  -->
<svg version="1.1" id="Layer_1" xmlns="http://www.w3.org/2000/svg" xmlns:xlink="http://www.w3.org/1999/xlink" x="0px" y="0px"
	 viewBox="0 0 197.07 406.72" style="enable-background:new 0 0 197.07 406.72;" xml:space="preserve">
<style type="text/css">
	.st0{fill:#F77C2B;}
	.st1{fill:#FF51AA;}
</style>
<g>
	<g>
		<g>
			<path class="st0" d="M196.48,295.73c-0.33-1.11-2.29-7.64-8.43-10.2c-6.18-2.58-12.59,0.79-14.08,1.62
				c1.04-3.16,2.5-9.22,0.68-16.21c-1.72-6.6-6.85-15.94-15.23-17.64c-4.75-0.96-9.07,0.83-12.17,2.53
				c-23,12.62-48.64,103.65-48.64,103.65c19.3-0.33,50.54-4.24,75.39-25.63C178.86,329.65,200.95,310.63,196.48,295.73z"/>
			<path class="st0" d="M86.56,307.92c-6.29-25.5-14.28-50.58-23.89-75.02c-2.7-6.85-5.56-13.73-9.94-19.65
				c-4.12-5.57-9.38-11.84-17.65-12.49c-6.55-0.52-13.06,2.72-17.06,7.72c-5.54,6.92-4.34,14.9-4.11,17.05
				c0.61,5.92,3.58,11.66,8.39,15.16c-10.26,0.85-18.57,6.05-21.31,13.59c-2.26,6.23-0.02,12.12,0.82,14.22
				c3.99,10.05,12.95,14.35,27.79,22.11C66.75,310.03,86.56,307.92,86.56,307.92z"/>
			<g>
				<path class="st0" d="M100.69,218.96c12.4,12.66,13.89,32.29,3.55,46.68l-14.93,20.77C77.03,303.49,77.5,327,90.43,343.58
					c8.64,11.08,10.11,26.33,3.75,38.85l-12.34,24.29h12.68l9.74-19.17c8.34-16.42,6.41-36.41-4.91-50.93
					c-9.86-12.65-10.22-30.58-0.86-43.6l14.93-20.77c13.56-18.86,11.6-44.6-4.65-61.19l-11.52-11.76
					c-11.3-11.54-13.61-29.41-5.62-43.45l18.29-32.13l-9.83-5.59l-18.29,32.13c-10.47,18.4-7.44,41.82,7.37,56.95L100.69,218.96z"/>
			</g>
		</g>
	</g>
	<path class="st1" d="M38.23,2.11c-4.93,33.32-4.19,59.9-2.61,77.76c0.85,9.62,2.47,22.74,7.58,38.32
		c5.96,18.18,9.17,27.94,18.78,35.16c15.05,11.3,38.02,10.51,53.06,0.71c10.1-6.58,14.85-16.06,17.66-22.4
		c17.78-40.08,20.47-95.29,20.98-119.06c-9.8,6.35-19.6,12.7-29.4,19.05c-2.88-10.08-7.01-19.81-12.27-28.88
		C105,11.4,97.98,20.04,90.97,28.68C88.37,19.12,85.77,9.56,83.18,0c-8.93,10.17-17.87,20.34-26.8,30.51
		C50.33,21.05,44.28,11.58,38.23,2.11z"/>
</g>
</svg>
