<?xml version="1.0" encoding="utf-8"?>
<!-- Generator: Adobe Illustrator 28.2.0, SVG Export Plug-In . SVG Version: 6.00 Build 0)  -->
<svg version="1.1" id="Layer_1" xmlns="http://www.w3.org/2000/svg" xmlns:xlink="http://www.w3.org/1999/xlink" x="0px" y="0px"
	 viewBox="0 0 223.22 175.68" style="enable-background:new 0 0 223.22 175.68;" xml:space="preserve">
<style type="text/css">
	.st0{fill:#FF9AF8;}
</style>
<g>
	<g>
		<g>
			<path class="st0" d="M220.37,64.2c-6.44-12.19-20.6-17.76-33.6-22.36c-8.26-2.92-16.53-5.85-24.79-8.77
				c-2.11-0.75-4.24-1.5-6.1-2.73c-2.4-1.58-4.23-3.86-6-6.12C143.49,16.04,137,7.21,127.44,3.18c-13.11-5.52-26.18-2.29-27.87-1.77
				c-1.16,0.36-3.72,1.21-6.77,2.88c-17.58,9.59-22.47,30.29-37.29,43.64c-17.76,16-31.25,4.73-45.22,21.42
				c-7.23,8.64-13.26,23.17-8.73,36.49c5.69,16.74,25.22,23.22,29.35,24.59c6.11,2.03,6.95,0.98,25.39,5.55
				c5.47,1.36,12.02,3.16,19.1,7.78c2.9,1.89,5.02,3.62,6.74,5.31c6.04,5.9,9.3,10.68,11.11,13.1c6.59,8.77,20.15,13.95,32.07,13.48
				c11.17-0.44,24.37-5.97,30.97-16.62c7.54-12.17,1.17-22.51,10.28-30.99c3.29-3.06,4.74-2.29,16.66-7.14
				c12.12-4.94,19.39-7.9,24.72-12.29C219.57,99.09,227.82,78.29,220.37,64.2z M137,84.16c-0.57,4.03-4.46,6.67-8.16,8.38
				c-11.88,5.5-25.67,6.77-38.35,3.54c-1.64-0.42-3.49-1.12-4.02-2.73c-0.26-0.8-0.13-1.68,0.11-2.49c1.55-5.27,6.93-8.3,11.9-10.65
				c5.96-2.81,12.36-5.47,18.85-5.49c4.2-0.66,8.59-1.31,12.64-0.01C134.03,76.03,137.6,79.94,137,84.16z"/>
		</g>
	</g>
</g>
</svg>
