<?xml version="1.0" encoding="utf-8"?>
<!-- Generator: Adobe Illustrator 28.2.0, SVG Export Plug-In . SVG Version: 6.00 Build 0)  -->
<svg version="1.1" id="Layer_1" xmlns="http://www.w3.org/2000/svg" xmlns:xlink="http://www.w3.org/1999/xlink" x="0px" y="0px"
	 viewBox="0 0 1122.92 197.57" style="enable-background:new 0 0 1122.92 197.57;" xml:space="preserve">
<style type="text/css">
	.st0{fill:#4E7E38;}
	.st1{fill:#EAE0CE;}
	.st2{fill:#FF9AF8;}
</style>
<g>
	<g>
		<g>
			<path class="st0" d="M41.88,162.77c0-37,50-47.6,76.19-47.6c-0.2-28.4-7-38-16.6-38c-17.2,0-20,25-36.4,25
				c-8.8,0-13.4-6.6-13.4-13c0-4.2,1.8-8.4,5.6-10.6c2.6,3,5.8,4,9.4,4c9.4,0,20.8-7.4,34.8-7.4c21.4,0,36.8,8.6,36.8,38.6
				c0,58.59,1.8,73.19,15.8,80.39c-31.6,6.4-35.6-21.6-35.8-47.19h-0.6c-4.6,32-19.8,50.59-41,50.59
				C58.88,197.57,41.88,186.17,41.88,162.77z M118.07,117.18c-8.2,0.6-53.99,6.8-53.99,47c0,18.2,8.8,28.2,19,28.2
				C98.87,192.37,118.47,169.17,118.07,117.18z"/>
		</g>
		<g>
			<path class="st0" d="M175.2,163.37V99.38c0-11.4,8.6-19.4,18.8-20.8h-18.8V27.99c-6.6,39-14.2,44.2-27.2,50.59
				c6.6,2,10.6,9.2,10.6,21v67.99c0,19.15,14.22,29.52,29.2,29.78C187.81,197.36,175.2,190.49,175.2,163.37z"/>
		</g>
		<g>
			<path class="st0" d="M27.2,163.37V99.38c0-11.4,8.6-19.4,18.8-20.8H27.2V27.99C20.6,66.98,13,72.18,0,78.58
				c6.6,2,10.6,9.2,10.6,21v67.99c0,19.15,14.22,29.52,29.2,29.78C39.8,197.36,27.2,190.49,27.2,163.37z"/>
		</g>
		<g>
			<path class="st0" d="M193.44,162.23c0-37,49.99-47.6,76.19-47.6c-0.2-28.4-7-38-16.6-38c-17.2,0-20,25-36.4,25
				c-8.8,0-13.4-6.6-13.4-13c0-4.2,1.8-8.4,5.6-10.6c2.6,3,5.8,4,9.4,4c9.4,0,20.8-7.4,34.8-7.4c21.4,0,36.8,8.6,36.8,38.6
				c0,58.59,1.8,73.19,15.8,80.39c-31.6,6.4-35.6-21.6-35.8-47.19h-0.6c-4.6,32-19.8,50.59-41,50.59
				C210.44,197.03,193.44,185.63,193.44,162.23z M269.63,116.63c-8.2,0.6-53.99,6.8-53.99,47c0,18.2,8.8,28.2,19,28.2
				C250.43,191.83,270.03,168.63,269.63,116.63z"/>
		</g>
		<g>
			<path class="st0" d="M382.93,78.58c-1,1.6-2.6,2-4.4,1.8c-4.6,0-11.4-5.2-20.2-5.2c-15.4,0-27.8,12.6-33.6,34.6
				c0-7,3.2-23.8,8.6-31.2c-5.64,1.02-10.38,1.56-15.06,1.63c-4.67-0.08-9.4-0.62-15.04-1.63c1.48,1.92,2.92,4.05,4.28,6.36
				c6.44,10.9,9.26,23.44,9.59,36.1c1.13,43.47-2.26,73.76-2.26,73.76c0.05,0,2.36,0,2.41,0h22.84
				c-14.98-23.75-15.74-51.86-15.16-71.22c0.4-24.6,9.6-31.6,20.4-31.6c11,0,18.4,6.4,26.4,6.4c8.6,0,12.6-6.8,12.6-13.6
				C384.33,82.78,383.93,80.38,382.93,78.58z"/>
		</g>
		<g>
			<path class="st0" d="M444.2,113.23c0-30-15.4-38.6-36.8-38.6c-5.18,0-10,1.02-14.5,2.29v7.35c3.82-4.26,8.19-7.64,14.5-7.64
				c9.6,0,16.4,9.6,16.6,38c-26.2,0-76.19,10.6-76.19,47.6c0,23.4,17,34.8,34.8,34.8c21.2,0,36.4-18.6,41-50.59h0.6
				c0.2,25.6,4.2,53.59,35.8,47.19C446,186.43,444.2,171.83,444.2,113.23z M389.01,191.83c-10.2,0-19-10-19-28.2
				c0-40.2,45.79-46.4,53.99-47C424.4,168.63,404.8,191.83,389.01,191.83z"/>
		</g>
	</g>
	<g>
		<g>
			<path class="st0" d="M959.37,105.08c0-30.2,4.2-58.99,11.2-73.59c-8.97,1.32-28.48,0.59-32.55,0
				c4.94,9.87,9.37,26.45,10.38,45.45c3.7,69.79-2.26,118.07-2.26,118.07h28.88c-2.8-4.43-4.64-9.46-6.19-14.44
				c-2.03-6.52-3.5-13.2-4.71-19.92c-1.38-7.67-2.39-15.41-3.14-23.17c-0.39-4.03-0.71-8.07-0.96-12.11
				c-0.13-2.02-0.23-4.04-0.33-6.06C959.6,117.3,959.37,106.17,959.37,105.08z"/>
		</g>
		<g>
			<path class="st0" d="M1000.5,163.37V99.38c0-11.4,8.6-19.4,18.8-20.8h-18.8V27.99c-6.6,39-14.2,44.2-27.2,50.59
				c6.6,2,10.6,9.2,10.6,21v67.99c0,19.15,14.22,29.52,29.2,29.78C1013.11,197.36,1000.5,190.49,1000.5,163.37z"/>
		</g>
		<g>
			<path class="st0" d="M633.67,194.71h28.88c-8.91-14.13-14.3-47.46-15.45-78.54c5.6-23.4,17.2-35.6,27.8-35.6
				c12.2,0,22.4,16,22.4,45.2c0,36.79,1.19,66.45,1.09,68.94h30.71c-9.52-16.54-14.13-31.78-17.8-73.74c-3.2-35.2-14.6-45.8-31-45.8
				c-11.8,0-25.2,8.2-33.4,32.8v-3.2c0-30.2,4.2-58.99,11.2-73.59c-8.97,1.32-28.48,0.59-32.55,0c4.94,9.87,9.37,26.45,10.38,45.45
				C639.64,146.43,633.67,194.71,633.67,194.71z"/>
		</g>
		<g>
			<path class="st0" d="M1027.49,195.01h28.88c-8.91-14.13-14.3-47.46-15.45-78.54c5.6-23.4,17.2-35.6,27.8-35.6
				c12.2,0,22.4,16,22.4,45.2c0,36.79,1.19,66.45,1.09,68.94h30.71c-9.52-16.54-14.13-31.78-17.8-73.74c-3.2-35.2-14.6-45.8-31-45.8
				c-11.8,0-25.2,8.2-33.4,32.8v-3.2c0-30.2,4.2-58.99,11.2-73.59c-8.97,1.32-28.48,0.59-32.55,0c4.94,9.87,9.37,26.45,10.38,45.45
				C1033.45,146.73,1027.49,195.01,1027.49,195.01z"/>
		</g>
		<g>
			<path class="st0" d="M725.53,134.57c0-39.6,27.2-58.99,57.39-58.99c18.6,0,40,9.4,40,30.8c0,21-20.4,32.4-42.2,32.4
				c-11.6,0-23.6-3.2-32.8-10.4c-0.6,29.2,14,59.39,41.6,59.39c11.8,0,23.2-6,30.8-18.2c-6.8,17.6-20.8,27.8-39.4,27.8
				C754.33,197.37,725.73,174.57,725.53,134.57z M803.73,103.78c0-14.2-6.6-25.6-21-25.6c-22,0-33.6,24.4-34.8,47.99
				c8.8,6.2,17,8.8,24.2,8.8C791.53,134.98,803.73,119.98,803.73,103.78z"/>
		</g>
		<g>
			<path class="st0" d="M824.4,162.77c0-37,50-47.6,76.19-47.6c-0.2-28.4-7-38-16.6-38c-17.2,0-20,25-36.4,25
				c-8.8,0-13.4-6.6-13.4-13c0-4.2,1.8-8.4,5.6-10.6c2.6,3,5.8,4,9.4,4c9.4,0,20.8-7.4,34.8-7.4c21.4,0,36.8,8.6,36.8,38.6
				c0,58.59,1.8,73.19,15.8,80.39c-31.6,6.4-35.6-21.6-35.8-47.19h-0.6c-4.6,32-19.8,50.59-41,50.59
				C841.4,197.57,824.4,186.17,824.4,162.77z M900.59,117.18c-8.2,0.6-53.99,6.8-53.99,47c0,18.2,8.8,28.2,19,28.2
				C881.39,192.37,900.99,169.17,900.59,117.18z"/>
		</g>
	</g>
	<g>
		<path class="st0" d="M549.78,122.53c14.84-13.06,31.8-13.44,35.91-13.42c0.49,5.1,0.81,16.46-5.91,27.42
			c-9.24,15.06-27.99,23.15-48,21C532.19,153.59,534.42,136.05,549.78,122.53z"/>
	</g>
	<g>
		<g>
			<path class="st1" d="M528.96,193.81c0.02-38.59-1.8-99.86-5.46-138.28"/>
		</g>
		<g>
			<path class="st0" d="M523.96,193.8c0.72-45.98,0.45-92.16-2.6-138.07c0,0,4.27-0.41,4.27-0.41c4.97,46.02,7.14,92.21,8.32,138.48
				C533.96,193.81,523.96,193.8,523.96,193.8L523.96,193.8z"/>
		</g>
	</g>
	<g>
		<g>
			<path class="st2" d="M573.41,30.95c-3.11-5.88-9.93-8.56-16.2-10.78c-3.98-1.41-7.97-2.82-11.95-4.23
				c-1.02-0.36-2.04-0.72-2.94-1.32c-1.16-0.76-2.04-1.86-2.89-2.95c-3.08-3.94-6.21-8.2-10.81-10.14
				C522.3-1.13,516,0.43,515.18,0.68c-0.56,0.17-1.79,0.59-3.26,1.39c-8.47,4.62-10.83,14.6-17.97,21.03
				c-8.56,7.71-15.06,2.28-21.8,10.33c-3.49,4.16-6.39,11.17-4.21,17.59c2.74,8.07,12.16,11.19,14.15,11.86
				c2.94,0.98,3.35,0.47,12.24,2.68c2.64,0.65,5.79,1.52,9.21,3.75c1.4,0.91,2.42,1.75,3.25,2.56c2.91,2.84,4.48,5.15,5.36,6.31
				c3.18,4.23,9.71,6.72,15.46,6.5c5.38-0.21,11.75-2.88,14.93-8.01c3.64-5.87,0.56-10.85,4.96-14.94c1.59-1.48,2.29-1.1,8.03-3.44
				c5.84-2.38,9.35-3.81,11.92-5.92C573.03,47.76,577,37.74,573.41,30.95z M533.23,40.57c-0.27,1.94-2.15,3.22-3.93,4.04
				c-5.73,2.65-12.37,3.26-18.49,1.71c-0.79-0.2-1.68-0.54-1.94-1.31c-0.13-0.39-0.06-0.81,0.05-1.2c0.75-2.54,3.34-4,5.74-5.13
				c2.87-1.36,5.96-2.64,9.08-2.64c2.03-0.32,4.14-0.63,6.09-0.01C531.79,36.65,533.51,38.53,533.23,40.57z"/>
		</g>
	</g>
</g>
</svg>
