<?xml version="1.0" encoding="utf-8"?>
<!-- Generator: Adobe Illustrator 28.2.0, SVG Export Plug-In . SVG Version: 6.00 Build 0)  -->
<svg version="1.1" id="Layer_1" xmlns="http://www.w3.org/2000/svg" xmlns:xlink="http://www.w3.org/1999/xlink" x="0px" y="0px"
	 viewBox="0 0 684.1 413" style="enable-background:new 0 0 684.1 413;" xml:space="preserve">
<style type="text/css">
	.st0{fill:#4E7E38;}
	.st1{fill:#FF9AF8;}
	.st2{fill:#8D4FD2;}
	.st3{fill:#FB9D22;}
	.st4{fill:#F77C2B;}
	.st5{fill:#FF51AA;}
</style>
<g>
	<g>
		<path class="st0" d="M171.35,265.13c30.79-27.1,65.97-27.89,74.5-27.84c1.02,10.57,1.69,34.15-12.27,56.89
			c-19.17,31.24-58.06,48.03-99.58,43.56C134.85,329.56,139.48,293.17,171.35,265.13z"/>
		<path class="st0" d="M117.78,412.99c1.5-95.38,0.94-191.18-5.39-286.43c0,0,8.87-0.84,8.87-0.84
			C131.57,221.19,136.08,317,138.53,413C138.53,413,117.78,412.99,117.78,412.99L117.78,412.99z"/>
		<g>
			<g>
				<path class="st1" d="M220.37,75.14c-6.44-12.19-20.6-17.76-33.6-22.36c-8.26-2.92-16.53-5.85-24.79-8.77
					c-2.11-0.75-4.24-1.5-6.1-2.73c-2.4-1.58-4.23-3.86-6-6.12c-6.39-8.17-12.87-17.01-22.43-21.03
					c-13.11-5.52-26.18-2.29-27.87-1.77c-1.16,0.36-3.72,1.21-6.77,2.88c-17.58,9.59-22.47,30.29-37.29,43.64
					c-17.76,16-31.25,4.73-45.22,21.42c-7.23,8.64-13.26,23.17-8.73,36.49c5.69,16.74,25.22,23.22,29.35,24.59
					c6.11,2.03,6.95,0.98,25.39,5.55c5.47,1.36,12.02,3.16,19.1,7.78c2.9,1.89,5.02,3.62,6.74,5.31c6.04,5.9,9.3,10.68,11.11,13.1
					c6.59,8.77,20.15,13.95,32.07,13.48c11.17-0.44,24.37-5.97,30.97-16.62c7.54-12.17,1.17-22.51,10.28-30.99
					c3.29-3.06,4.74-2.29,16.66-7.14c12.12-4.94,19.39-7.9,24.72-12.29C219.57,110.03,227.82,89.23,220.37,75.14z M137,95.11
					c-0.57,4.03-4.46,6.67-8.16,8.38c-11.88,5.5-25.67,6.77-38.35,3.54c-1.64-0.42-3.49-1.12-4.02-2.73
					c-0.26-0.8-0.13-1.68,0.11-2.49c1.55-5.27,6.93-8.3,11.9-10.65c5.96-2.81,12.36-5.47,18.85-5.49c4.2-0.66,8.59-1.31,12.64-0.01
					C134.03,86.98,137.6,90.89,137,95.11z"/>
			</g>
		</g>
	</g>
	<g>
		<g>
			<path class="st2" d="M575.8,413c-1.05-1.79-2.47-4.09-3.4-5.56c-13.04-21.28-33.57-55.63-31.4-80.76
				c1.29-12.72,5.47-23.36,16.6-30.32c1.84,9.28,5.32,18.32,13.04,24.41c5.55,4,12.5,5.92,19.32,6.05c5.33,0.11,10.73-2.4,14.4-6.02
				c12.41-12.18,7.85-30.74-5.93-39.51c-9.48-6.2-21.68-6.26-32.18-2.8c-1.17-16.76-0.2-33.9,0.91-50.71
				c2.8-37.61,7.27-75.23,12.49-112.61l-8.41-1.25c-5.76,37.58-10.74,75.17-14.07,113.09c-1.47,18.61-2.76,37.11-1.36,55.88
				c-1.42,0.69-2.82,1.41-4.17,2.23c-5.79,3.41-11.14,8.2-15.01,13.86c-5.9,9-8.54,19.73-9.12,30.34
				c-0.5,27.68,16.99,59.01,31.62,83.68H575.8z M581.46,288.51c8.67-0.04,17.99,6.46,18.35,15.46c0.1,5.13-4.02,10.9-9.33,11.34
				c-4.5,0.11-9.26-1.04-13.06-3.53c-5.88-4.6-8.32-12.66-9.68-20.48C572.08,289.45,576.94,288.35,581.46,288.51z"/>
			<path class="st2" d="M563.65,246.59c-9.18,0.59-32.36,0.84-56.99-12.83c-24.78-13.76-36.83-33.75-41.16-41.86
				c7.15-1.64,19.36-3.48,34.06-0.8c21.17,3.85,34.89,14.78,39.43,18.67C554.92,223.44,561.29,239.48,563.65,246.59z"/>
			<path class="st2" d="M559.31,247.69c3.89-7.74,14.72-26.71,37.55-40.22c22.98-13.6,44.97-13.88,53.62-13.54
				c-2.07,6.59-6.39,17.39-15.56,28.07c-13.21,15.38-28.62,21.34-33.95,23.17C582.28,251.61,566.21,249.16,559.31,247.69z"/>
		</g>
	</g>
	<g>
		<g>
			<path class="st3" d="M682.2,64.27c0,0-2.53-5.19-8.31-8.98c-9.95-6.52-33.41-1.67-59.4,12.84c4.11-15.9,2.41-28.52,0.94-35.35
				c-2.32-10.74-5.31-24.54-16.96-30.21c-7.03-3.42-17.2-3.88-24.11,1.34c-3.06,2.31-6.58,6.57-8.69,22.86
				c-1.28,9.89-2.08,24.41,0.89,42.29c-5.61-2.06-13.55-4.66-23.28-6.82c-4.85-1.08-12.85-2.85-21.45-3.4
				c-1.64-0.11-39.47-2.26-43.78,10.89c-2.57,7.84,7.89,17.71,11.24,20.87c16.46,15.54,39.01,14.98,46.55,14.45
				c-3.96,0.52-21.82,3.29-30.91,18.09c-2.02,3.29-7.59,12.35-3.94,20.73c3.47,7.96,13.04,10.25,16.41,11.06
				c2.11,0.5,9.49,2.04,21.04-1.91c17.74-6.07,28.64-19.38,33.68-26.62c1.1,6.97,4.94,13.17,8.7,19.14
				c2.28,3.62,5.75,9.35,11.2,14.39c10.83,10.02,30.73,18.72,40.55,11.15c4.51-3.48,5.41-9.24,6.01-13.05
				c3.32-21.31-13.69-39.18-17.63-43.13c35.11-7.51,59.69-21.58,62.46-34.24C685.5,71.05,682.2,64.27,682.2,64.27z M603.25,93.82
				c-1.05,7.93-8.49,16.09-17.66,16.05c-7.03-0.03-11.56-4.85-12.14-5.48c-5.99-6.58-4.08-15.22-3.71-16.49
				c1.51-5.23,5.88-9.06,10.03-12.59l9.15,0.94c1,0.14,9.06,1.39,12.77,8.43C603.86,88.78,603.4,92.68,603.25,93.82z"/>
		</g>
	</g>
	<g>
		<g>
			<path class="st4" d="M465.83,302.02c-0.33-1.11-2.29-7.64-8.43-10.2c-6.18-2.58-12.59,0.79-14.08,1.62
				c1.04-3.16,2.5-9.22,0.68-16.21c-1.72-6.6-6.85-15.94-15.23-17.64c-4.75-0.96-9.07,0.83-12.17,2.53
				c-23,12.62-48.64,103.65-48.64,103.65c19.3-0.33,50.54-4.24,75.39-25.63C448.2,335.94,470.3,316.91,465.83,302.02z"/>
			<path class="st4" d="M355.91,314.2c-6.29-25.5-14.28-50.58-23.89-75.02c-2.7-6.85-5.56-13.73-9.94-19.65
				c-4.12-5.57-9.38-11.84-17.65-12.49c-6.55-0.52-13.06,2.72-17.06,7.72c-5.54,6.92-4.34,14.9-4.11,17.05
				c0.61,5.92,3.58,11.66,8.39,15.16c-10.26,0.85-18.57,6.05-21.31,13.59c-2.26,6.23-0.02,12.12,0.82,14.22
				c3.99,10.05,12.95,14.35,27.79,22.11C336.1,316.31,355.91,314.2,355.91,314.2z"/>
			<g>
				<path class="st4" d="M370.03,225.25c12.4,12.66,13.89,32.29,3.55,46.68l-14.93,20.77c-12.27,17.07-11.81,40.58,1.12,57.16
					c8.64,11.08,10.11,26.33,3.75,38.85L351.18,413h12.68l9.74-19.17c8.34-16.42,6.41-36.41-4.91-50.93
					c-9.86-12.65-10.22-30.58-0.86-43.6l14.93-20.77c13.56-18.86,11.6-44.6-4.65-61.19l-11.52-11.76
					c-11.3-11.54-13.61-29.41-5.62-43.45L379.26,130l-9.83-5.59l-18.29,32.13c-10.47,18.4-7.44,41.82,7.37,56.95L370.03,225.25z"/>
			</g>
		</g>
	</g>
	<path class="st5" d="M307.58,8.39c-4.93,33.32-4.19,59.9-2.61,77.76c0.85,9.62,2.47,22.74,7.58,38.32
		c5.96,18.18,9.17,27.94,18.78,35.16c15.05,11.3,38.02,10.51,53.06,0.71c10.1-6.58,14.85-16.06,17.66-22.4
		c17.78-40.08,20.47-95.29,20.98-119.06c-9.8,6.35-19.6,12.7-29.4,19.05c-2.88-10.08-7.01-19.81-12.27-28.88
		c-7.02,8.64-14.03,17.28-21.05,25.92c-2.6-9.56-5.19-19.12-7.79-28.68c-8.93,10.17-17.87,20.34-26.8,30.51
		C319.68,27.33,313.63,17.86,307.58,8.39z"/>
</g>
</svg>
